<?xml version="1.0" standalone="no"?>
<!DOCTYPE svg PUBLIC "-//W3C//DTD SVG 20010904//EN"
 "http://www.w3.org/TR/2001/REC-SVG-20010904/DTD/svg10.dtd">
<svg version="1.0" xmlns="http://www.w3.org/2000/svg"
 width="192.000000pt" height="192.000000pt" viewBox="0 0 192.000000 192.000000"
 preserveAspectRatio="xMidYMid meet">
<metadata>
Created by potrace 1.14, written by Peter Selinger 2001-2017
</metadata>
<g transform="translate(0.000000,192.000000) scale(0.100000,-0.100000)"
fill="#000000" stroke="none">
<path d="M838 1454 c-89 -46 -124 -117 -115 -229 4 -45 -1 -84 -20 -154 -20
-74 -23 -99 -14 -118 6 -13 11 -26 11 -28 0 -5 -99 -51 -130 -60 -60 -17 -87
-43 -98 -92 -5 -27 -19 -84 -31 -128 -23 -86 -95 -480 -107 -582 l-7 -63 583
0 582 0 -7 58 c-3 31 -17 125 -30 207 -51 319 -85 478 -106 491 -6 3 -8 16 -5
28 4 17 -5 28 -52 57 -31 20 -71 42 -89 48 -17 7 -41 23 -54 37 l-22 24 26 0
c20 0 28 6 33 25 3 14 3 32 0 41 -3 9 -3 21 1 27 5 7 9 26 10 42 2 17 6 54 9
84 3 30 1 71 -5 91 -19 63 -85 154 -136 188 -43 28 -56 32 -114 31 -49 0 -78
-7 -113 -25z m153 -85 c18 -27 39 -68 39 -77 0 -5 -15 -14 -32 -20 l-33 -11
33 5 c40 7 43 -11 2 -19 -36 -8 -40 -27 -6 -27 31 0 48 -17 76 -74 l22 -46
-21 -42 c-17 -38 -35 -138 -24 -138 2 0 8 10 12 23 9 21 9 21 17 2 4 -11 33
-62 65 -113 31 -51 67 -119 79 -153 21 -56 22 -66 12 -152 -6 -51 -14 -100
-17 -109 -5 -13 -2 -18 9 -18 27 0 109 -46 140 -79 33 -34 22 -40 -27 -15
l-32 16 25 -28 c14 -16 34 -40 45 -53 l20 -24 -28 5 c-26 5 -27 4 -12 -12 25
-27 1 -33 -31 -7 l-29 22 18 -28 c24 -37 3 -36 -49 3 -21 16 -42 30 -46 30 -5
0 -8 -33 -8 -74 0 -41 -3 -77 -7 -79 -5 -2 -35 2 -68 9 -33 7 -78 16 -100 20
-22 4 -50 16 -62 27 -15 13 -28 17 -40 12 -10 -4 -35 -11 -55 -15 -37 -7 -38
-6 -38 20 0 27 -3 29 -66 40 -69 12 -144 43 -144 60 0 13 1 13 43 -5 39 -16
77 -20 77 -7 -1 4 -33 30 -72 57 -77 55 -72 77 8 30 25 -15 48 -25 50 -22 6 6
-85 87 -97 87 -5 0 -9 5 -9 11 0 20 53 -1 98 -38 24 -19 45 -33 47 -31 3 2
-16 28 -41 56 -26 29 -44 55 -41 58 8 8 59 -21 91 -53 l29 -28 -7 35 c-22 107
-35 221 -41 350 -6 138 -5 146 16 175 11 17 18 22 15 12 -3 -11 -2 -16 4 -12
6 3 10 13 10 21 0 8 4 14 9 14 16 0 18 49 3 72 -21 30 -41 153 -35 213 8 68
37 124 74 139 36 15 116 6 130 -15z m-391 -1299 c0 -5 -5 -10 -11 -10 -5 0 -7
5 -4 10 3 6 8 10 11 10 2 0 4 -4 4 -10z"/>
<path d="M825 1280 c-2 -4 1 -7 8 -7 7 0 23 -3 36 -7 15 -5 21 -4 17 2 -7 12
-55 22 -61 12z"/>
<path d="M827 1251 c-16 -6 -17 -9 -4 -19 15 -13 67 -13 67 0 0 7 -34 29 -42
27 -2 0 -11 -4 -21 -8z"/>
<path d="M893 1083 c15 -2 37 -2 50 0 12 2 0 4 -28 4 -27 0 -38 -2 -22 -4z"/>
<path d="M1010 139 c0 -5 5 -7 10 -4 6 3 10 8 10 11 0 2 -4 4 -10 4 -5 0 -10
-5 -10 -11z"/>
</g>
</svg>
