<svg width="30" height="26" viewBox="0 0 30 26" fill="none" xmlns="http://www.w3.org/2000/svg">
<path d="M7.5 9.55885C7.5 8.64619 7.85558 7.77091 8.48851 7.12557C9.12145 6.48022 9.97989 6.11767 10.875 6.11767C11.7701 6.11767 12.6285 6.48022 13.2615 7.12557C13.8944 7.77091 14.25 8.64619 14.25 9.55885C14.25 10.4715 13.8944 11.3468 13.2615 11.9921C12.6285 12.6375 11.7701 13 10.875 13C9.97989 13 9.12145 12.6375 8.48851 11.9921C7.85558 11.3468 7.5 10.4715 7.5 9.55885ZM10.875 4.58826C9.58207 4.58826 8.34209 5.11194 7.42785 6.04411C6.51361 6.97627 6 8.24056 6 9.55885C6 10.8771 6.51361 12.1414 7.42785 13.0736C8.34209 14.0057 9.58207 14.5294 10.875 14.5294C12.1679 14.5294 13.4079 14.0057 14.3221 13.0736C15.2364 12.1414 15.75 10.8771 15.75 9.55885C15.75 8.24056 15.2364 6.97627 14.3221 6.04411C13.4079 5.11194 12.1679 4.58826 10.875 4.58826ZM19.4055 22.3983C20.2125 22.7347 21.228 22.9412 22.5 22.9412C25.3215 22.9412 26.8815 21.9196 27.7035 20.748C28.1333 20.1338 28.4023 19.4178 28.485 18.668C28.4924 18.5984 28.4974 18.5285 28.5 18.4585V18.353C28.5 18.0517 28.4418 17.7534 28.3287 17.475C28.2157 17.1967 28.0499 16.9438 27.841 16.7308C27.6321 16.5177 27.384 16.3488 27.111 16.2335C26.8381 16.1182 26.5455 16.0588 26.25 16.0588H19.305C19.665 16.5024 19.935 17.0208 20.0925 17.5883H26.25C26.4489 17.5883 26.6397 17.6688 26.7803 17.8122C26.921 17.9556 27 18.1502 27 18.353V18.4356L26.9925 18.512C26.9362 18.9972 26.7608 19.4601 26.4825 19.8579C25.992 20.5599 24.927 21.4118 22.5 21.4118C21.402 21.4118 20.583 21.2374 19.9695 20.982C19.8465 21.4103 19.668 21.8936 19.4055 22.3983ZM3 19.1177C3 18.3064 3.31607 17.5284 3.87868 16.9548C4.44129 16.3811 5.20435 16.0588 6 16.0588H15.75C16.5456 16.0588 17.3087 16.3811 17.8713 16.9548C18.4339 17.5284 18.75 18.3064 18.75 19.1177V19.2461L18.747 19.3073L18.732 19.5138C18.6257 20.5049 18.2804 21.4539 17.727 22.2759C16.6755 23.8283 14.6445 25.2353 10.875 25.2353C7.1055 25.2353 5.0745 23.8283 4.023 22.2774C3.46935 21.455 3.12407 20.5055 3.018 19.5138C3.00944 19.4248 3.00344 19.3355 3 19.2461V19.1177ZM4.5 19.2094V19.237L4.5105 19.3639C4.5919 20.097 4.84839 20.7986 5.2575 21.4072C5.988 22.4839 7.5195 23.7059 10.875 23.7059C14.2305 23.7059 15.762 22.4839 16.4925 21.4072C16.9016 20.7986 17.1581 20.097 17.2395 19.3639C17.2455 19.3058 17.2485 19.2635 17.2485 19.237L17.25 19.211V19.1177C17.25 18.712 17.092 18.323 16.8107 18.0362C16.5294 17.7494 16.1478 17.5883 15.75 17.5883H6C5.60218 17.5883 5.22064 17.7494 4.93934 18.0362C4.65804 18.323 4.5 18.712 4.5 19.1177V19.2094ZM20.25 10.7059C20.25 10.0975 20.4871 9.51395 20.909 9.08372C21.331 8.65349 21.9033 8.41179 22.5 8.41179C23.0967 8.41179 23.669 8.65349 24.091 9.08372C24.5129 9.51395 24.75 10.0975 24.75 10.7059C24.75 11.3143 24.5129 11.8979 24.091 12.3281C23.669 12.7583 23.0967 13 22.5 13C21.9033 13 21.331 12.7583 20.909 12.3281C20.4871 11.8979 20.25 11.3143 20.25 10.7059ZM22.5 6.88237C21.5054 6.88237 20.5516 7.28521 19.8484 8.00226C19.1451 8.71931 18.75 9.69184 18.75 10.7059C18.75 11.72 19.1451 12.6925 19.8484 13.4095C20.5516 14.1266 21.5054 14.5294 22.5 14.5294C23.4946 14.5294 24.4484 14.1266 25.1516 13.4095C25.8549 12.6925 26.25 11.72 26.25 10.7059C26.25 9.69184 25.8549 8.71931 25.1516 8.00226C24.4484 7.28521 23.4946 6.88237 22.5 6.88237Z" fill="black"/>
</svg>
