<svg width="27" height="27" viewBox="0 0 27 27" fill="none" xmlns="http://www.w3.org/2000/svg">
<path d="M27 10.47V24C27 25.65 25.785 27 24.3 27H2.7C1.215 27 0 25.65 0 24L0.0135 6C0.0135 4.35 1.215 3 2.7 3H16.335C16.254 3.48 16.2 3.99 16.2 4.5C16.2 5.01 16.254 5.52 16.335 6H2.7L13.5 13.5L18.4545 10.065C19.089 10.71 19.8315 11.205 20.655 11.535L13.5 16.5L2.7 9V24H24.3V11.85C25.299 11.625 26.217 11.13 27 10.47ZM18.9 4.5C18.9 6.99 20.709 9 22.95 9C25.191 9 27 6.99 27 4.5C27 2.01 25.191 0 22.95 0C20.709 0 18.9 2.01 18.9 4.5Z" fill="black"/>
</svg>
