<svg width="27" height="27" viewBox="0 0 27 27" fill="none" xmlns="http://www.w3.org/2000/svg">
<path d="M22.5 23.8235C23.7375 23.8235 24.7388 22.3941 24.7388 20.6471L24.75 3.17647C24.75 1.42941 23.7375 0 22.5 0H4.5C3.2625 0 2.25 1.42941 2.25 3.17647V20.6471C2.25 22.3941 3.2625 23.8235 4.5 23.8235H0C0 25.5706 1.0125 27 2.25 27H24.75C25.9875 27 27 25.5706 27 23.8235H22.5ZM4.5 3.17647H22.5V20.6471H4.5V3.17647ZM13.5 25.4118C12.8813 25.4118 12.375 24.6971 12.375 23.8235C12.375 22.95 12.8813 22.2353 13.5 22.2353C14.1187 22.2353 14.625 22.95 14.625 23.8235C14.625 24.6971 14.1187 25.4118 13.5 25.4118Z" fill="black"/>
</svg>
