<svg width="84" height="84" viewBox="0 0 84 84" fill="none" xmlns="http://www.w3.org/2000/svg">
<path d="M83.8587 42.2845L75.1023 33.5281L78.376 21.2039L71.8277 19.4602V12.5378H62.3412L59.0273 3.64926L48.9733 7.3985L41.5748 0L32.5543 9.02055L20.5837 5.83881L18.7999 12.538H12.0301V21.1735L3.94237 24.1849L7.59102 33.9858L0 41.5768L8.75641 50.3332L5.48274 62.6574L12.0303 64.3996V71.3219H21.5167L24.8306 80.2105L34.8846 76.4612L42.2831 83.8597L51.3037 74.8392L63.2734 78.0225L65.058 71.3217H71.8278V62.6862L79.9155 59.6749L76.2669 49.874L83.8587 42.2845ZM25.2352 41.879L34.945 51.5777L57.607 28.9157L59.6242 30.9329L34.9846 54.9327L23.2074 43.8753L25.2352 41.879Z" fill="white"/>
</svg>
