<svg width="30" height="30" viewBox="0 0 30 30" fill="none" xmlns="http://www.w3.org/2000/svg">
<path d="M0 30L2.11881 22.2962C0.811354 20.0413 0.124341 17.485 0.125597 14.8637C0.129364 6.66875 6.82994 0 15.0628 0C19.058 0.00125 22.8083 1.55 25.6292 4.36C28.4489 7.17 30.0013 10.905 30 14.8775C29.9962 23.0738 23.2957 29.7425 15.0628 29.7425C12.5634 29.7413 10.1005 29.1175 7.91886 27.9325L0 30ZM8.28561 25.2413C10.3906 26.485 12.4002 27.23 15.0578 27.2313C21.9003 27.2313 27.4743 21.6887 27.478 14.875C27.4805 8.0475 21.9329 2.5125 15.0678 2.51C8.2203 2.51 2.65009 8.0525 2.64758 14.865C2.64632 17.6462 3.46521 19.7287 4.84049 21.9075L3.58578 26.4675L8.28561 25.2413ZM22.5873 18.4113C22.4943 18.2563 22.2457 18.1637 21.8714 17.9775C21.4984 17.7913 19.6634 16.8925 19.3205 16.7687C18.9789 16.645 18.7302 16.5825 18.4803 16.955C18.2316 17.3263 17.5157 18.1637 17.2984 18.4113C17.0811 18.6588 16.8626 18.69 16.4896 18.5037C16.1166 18.3175 14.9133 17.9263 13.4878 16.66C12.3788 15.675 11.629 14.4587 11.4117 14.0863C11.1944 13.715 11.3891 13.5138 11.575 13.3288C11.7433 13.1625 11.948 12.895 12.1351 12.6775C12.3248 12.4625 12.3863 12.3075 12.5119 12.0588C12.6363 11.8113 12.5747 11.5938 12.4805 11.4075C12.3863 11.2225 11.6403 9.39375 11.3301 8.65C11.0261 7.92625 10.7184 8.02375 10.4898 8.0125L9.77393 8C9.52524 8 9.12082 8.0925 8.7792 8.465C8.43758 8.8375 7.473 9.735 7.473 11.5638C7.473 13.3925 8.8106 15.1587 8.99648 15.4062C9.18362 15.6537 11.6277 19.4062 15.3718 21.015C16.2622 21.3975 16.958 21.6262 17.4994 21.7975C18.3936 22.08 19.2075 22.04 19.8505 21.945C20.5677 21.8387 22.0585 21.0462 22.37 20.1787C22.6815 19.31 22.6815 18.5662 22.5873 18.4113Z" fill="#16E061"/>
</svg>
